HIERARCHY
ROOT newVegas:Hips
{
	OFFSET 0.000000 96.479958 0.000000
	CHANNELS 6 Xposition Yposition Zposition Xrotation Yrotation Zrotation
	JOINT newVegas:Pelvis
	{
		OFFSET 0.000000 0.000000 0.000000
		CHANNELS 3 Xrotation Yrotation Zrotation
		JOINT newVegas:LeftUpLeg
		{
			OFFSET 18.735201 -5.666702 -4.541200
			CHANNELS 3 Xrotation Yrotation Zrotation
			JOINT newVegas:LeftLeg
			{
				OFFSET -0.021200 -31.938179 0.493100
				CHANNELS 3 Xrotation Yrotation Zrotation
				JOINT newVegas:LeftFoot
				{
					OFFSET 0.021200 -31.938179 -4.336299
					CHANNELS 3 Xrotation Yrotation Zrotation
					JOINT newVegas:LeftToeBase
					{
						OFFSET 0.943001 -26.722000 15.023500
						CHANNELS 3 Xrotation Yrotation Zrotation
						End Site
						{
							OFFSET 0.000000 30.670183 0.000000
						}
					}
				}
				JOINT newVegas:Left_PantLeg
				{
					OFFSET 0.663870 -9.044666 -1.108900
					CHANNELS 3 Xrotation Yrotation Zrotation
					End Site
					{
						OFFSET 1.415995 20.635357 0.000000
					}
				}
			}
		}
		JOINT newVegas:RightUpLeg
		{
			OFFSET -18.735201 -5.666702 -4.541200
			CHANNELS 3 Xrotation Yrotation Zrotation
			JOINT newVegas:RightLeg
			{
				OFFSET 0.018946 -31.938133 0.493100
				CHANNELS 3 Xrotation Yrotation Zrotation
				JOINT newVegas:RightFoot
				{
					OFFSET -0.018946 -31.938126 -4.336299
					CHANNELS 3 Xrotation Yrotation Zrotation
					JOINT newVegas:RightToeBase
					{
						OFFSET -0.943001 -26.722004 15.023500
						CHANNELS 3 Xrotation Yrotation Zrotation
						End Site
						{
							OFFSET 0.000000 30.670187 0.000000
						}
					}
				}
				JOINT newVegas:Right_PantLeg
				{
					OFFSET -0.661674 -9.044716 -1.108900
					CHANNELS 3 Xrotation Yrotation Zrotation
					End Site
					{
						OFFSET -1.415958 20.635269 0.000000
					}
				}
			}
		}
	}
	JOINT newVegas:Spine
	{
		OFFSET 0.000000 10.199997 -0.299500
		CHANNELS 3 Xrotation Yrotation Zrotation
		JOINT newVegas:Spine1
		{
			OFFSET 0.000000 11.900002 -1.516600
			CHANNELS 3 Xrotation Yrotation Zrotation
			JOINT newVegas:Spine2
			{
				OFFSET 0.000000 13.600006 -2.842500
				CHANNELS 3 Xrotation Yrotation Zrotation
				JOINT newVegas:Neck
				{
					OFFSET 0.000000 9.624100 -2.890100
					CHANNELS 3 Xrotation Yrotation Zrotation
					JOINT newVegas:Head
					{
						OFFSET 0.000000 14.068802 -1.351900
						CHANNELS 3 Xrotation Yrotation Zrotation
						JOINT newVegas:Hair_Back
						{
							OFFSET 0.000000 3.231903 -17.524799
							CHANNELS 3 Xrotation Yrotation Zrotation
							End Site
							{
								OFFSET 0.000000 19.849884 0.000000
							}
						}
						JOINT newVegas:Hair_Front
						{
							OFFSET 0.000000 31.260406 4.573800
							CHANNELS 3 Xrotation Yrotation Zrotation
							JOINT newVegas:Hair_Front1
							{
								OFFSET 0.000000 2.284103 11.993300
								CHANNELS 3 Xrotation Yrotation Zrotation
								JOINT newVegas:Hair_Front2
								{
									OFFSET 0.000000 2.284103 11.993300
									CHANNELS 3 Xrotation Yrotation Zrotation
									End Site
									{
										OFFSET 0.000000 12.208862 0.000000
									}
								}
							}
						}
						JOINT newVegas:Jowel
						{
							OFFSET 0.000000 -7.458206 6.864100
							CHANNELS 3 Xrotation Yrotation Zrotation
							End Site
							{
								OFFSET 0.000000 19.849884 0.000000
							}
						}
					}
				}
				JOINT newVegas:LeftShoulder
				{
					OFFSET 15.263000 10.923401 -0.547700
					CHANNELS 3 Xrotation Yrotation Zrotation
					JOINT newVegas:LeftArm
					{
						OFFSET 25.438599 -2.830597 -13.032500
						CHANNELS 3 Xrotation Yrotation Zrotation
						JOINT newVegas:LeftForeArm
						{
							OFFSET 29.960503 0.000000 0.000000
							CHANNELS 3 Xrotation Yrotation Zrotation
							JOINT newVegas:LeftHand
							{
								OFFSET 27.849251 0.000000 0.000000
								CHANNELS 3 Xrotation Yrotation Zrotation
								JOINT newVegas:LeftHandThumb1
								{
									OFFSET 4.487587 -3.305161 6.305391
									CHANNELS 3 Xrotation Yrotation Zrotation
									JOINT newVegas:LeftHandThumb2
									{
										OFFSET 5.480453 -3.164139 3.164143
										CHANNELS 3 Xrotation Yrotation Zrotation
										JOINT newVegas:LeftHandThumb3
										{
											OFFSET 5.159721 -2.978973 2.978967
											CHANNELS 3 Xrotation Yrotation Zrotation
											End Site
											{
												OFFSET 2.494507 5.926697 1.738678
											}
										}
									}
								}
								JOINT newVegas:LeftHandIndex1
								{
									OFFSET 18.578728 -0.527832 5.208049
									CHANNELS 3 Xrotation Yrotation Zrotation
									JOINT newVegas:LeftHandIndex2
									{
										OFFSET 3.192009 0.000000 0.000000
										CHANNELS 3 Xrotation Yrotation Zrotation
										JOINT newVegas:LeftHandIndex3
										{
											OFFSET 3.835129 0.000000 0.000000
											CHANNELS 3 Xrotation Yrotation Zrotation
											End Site
											{
												OFFSET -0.034599 3.816971 0.371180
											}
										}
									}
								}
								JOINT newVegas:LeftHandMiddle1
								{
									OFFSET 18.476105 0.000000 0.000000
									CHANNELS 3 Xrotation Yrotation Zrotation
									JOINT newVegas:LeftHandMiddle2
									{
										OFFSET 3.324875 0.000000 0.000000
										CHANNELS 3 Xrotation Yrotation Zrotation
										JOINT newVegas:LeftHandMiddle3
										{
											OFFSET 4.596550 0.000000 0.000000
											CHANNELS 3 Xrotation Yrotation Zrotation
											End Site
											{
												OFFSET 0.057701 4.578827 0.399218
											}
										}
									}
								}
								JOINT newVegas:LeftHandRing1
								{
									OFFSET 17.732719 0.121887 -4.201567
									CHANNELS 3 Xrotation Yrotation Zrotation
									JOINT newVegas:LeftHandRing2
									{
										OFFSET 2.733170 0.000000 0.000000
										CHANNELS 3 Xrotation Yrotation Zrotation
										JOINT newVegas:LeftHandRing3
										{
											OFFSET 3.178268 0.000000 0.000000
											CHANNELS 3 Xrotation Yrotation Zrotation
											End Site
											{
												OFFSET 0.119102 3.170624 0.185394
											}
										}
									}
								}
								JOINT newVegas:LeftHandPinky1
								{
									OFFSET 15.989624 -0.606689 -7.535461
									CHANNELS 3 Xrotation Yrotation Zrotation
									JOINT newVegas:LeftHandPinky2
									{
										OFFSET 2.538986 0.000000 0.000000
										CHANNELS 3 Xrotation Yrotation Zrotation
										JOINT newVegas:LeftHandPinky3
										{
											OFFSET 2.593102 0.000000 0.000000
											CHANNELS 3 Xrotation Yrotation Zrotation
											End Site
											{
												OFFSET -0.150902 2.584198 0.152708
											}
										}
									}
								}
							}
							JOINT newVegas:Left_Sleeve
							{
								OFFSET 0.267448 -0.649796 0.577675
								CHANNELS 3 Xrotation Yrotation Zrotation
								End Site
								{
									OFFSET 0.000000 15.991241 0.000000
								}
							}
							JOINT newVegas:Left_CapeC
							{
								OFFSET 15.715958 -8.608795 -6.935905
								CHANNELS 3 Xrotation Yrotation Zrotation
								JOINT newVegas:Left_CapeC1
								{
									OFFSET 0.000000 -8.688499 0.000000
									CHANNELS 3 Xrotation Yrotation Zrotation
									End Site
									{
										OFFSET 0.000000 8.688499 0.000000
									}
								}
							}
						}
						JOINT newVegas:Left_CapeB
						{
							OFFSET 26.118385 -8.608795 -7.079235
							CHANNELS 3 Xrotation Yrotation Zrotation
							JOINT newVegas:Left_CapeB1
							{
								OFFSET 0.000000 -8.688499 0.000000
								CHANNELS 3 Xrotation Yrotation Zrotation
								End Site
								{
									OFFSET 0.000000 8.688499 0.000000
								}
							}
						}
						JOINT newVegas:Left_CapeA
						{
							OFFSET 5.115639 -8.608795 -10.395809
							CHANNELS 3 Xrotation Yrotation Zrotation
							JOINT newVegas:Left_CapeA1
							{
								OFFSET 0.000000 -8.688499 0.000000
								CHANNELS 3 Xrotation Yrotation Zrotation
								End Site
								{
									OFFSET 0.000000 8.688499 0.000000
								}
							}
						}
					}
				}
				JOINT newVegas:RightShoulder
				{
					OFFSET -15.263000 10.923401 -0.547700
					CHANNELS 3 Xrotation Yrotation Zrotation
					JOINT newVegas:RightArm
					{
						OFFSET -25.438599 -2.830597 -13.032500
						CHANNELS 3 Xrotation Yrotation Zrotation
						JOINT newVegas:RightForeArm
						{
							OFFSET -29.960503 0.000000 0.000000
							CHANNELS 3 Xrotation Yrotation Zrotation
							JOINT newVegas:RightHand
							{
								OFFSET -27.849251 0.000000 0.000000
								CHANNELS 3 Xrotation Yrotation Zrotation
								JOINT newVegas:RightHandThumb1
								{
									OFFSET -4.487587 -3.305161 6.305391
									CHANNELS 3 Xrotation Yrotation Zrotation
									JOINT newVegas:RightHandThumb2
									{
										OFFSET -5.480453 -3.164139 3.164143
										CHANNELS 3 Xrotation Yrotation Zrotation
										JOINT newVegas:RightHandThumb3
										{
											OFFSET -5.159721 -2.978973 2.978967
											CHANNELS 3 Xrotation Yrotation Zrotation
											End Site
											{
												OFFSET -2.494507 5.926697 1.738678
											}
										}
									}
								}
								JOINT newVegas:RightHandIndex1
								{
									OFFSET -18.578728 -0.527832 5.208049
									CHANNELS 3 Xrotation Yrotation Zrotation
									JOINT newVegas:RightHandIndex2
									{
										OFFSET -3.192009 0.000000 0.000000
										CHANNELS 3 Xrotation Yrotation Zrotation
										JOINT newVegas:RightHandIndex3
										{
											OFFSET -3.835129 0.000000 0.000000
											CHANNELS 3 Xrotation Yrotation Zrotation
											End Site
											{
												OFFSET 0.034599 3.816971 0.371180
											}
										}
									}
								}
								JOINT newVegas:RightHandMiddle1
								{
									OFFSET -18.476105 0.000000 0.000000
									CHANNELS 3 Xrotation Yrotation Zrotation
									JOINT newVegas:RightHandMiddle2
									{
										OFFSET -3.324875 0.000000 0.000000
										CHANNELS 3 Xrotation Yrotation Zrotation
										JOINT newVegas:RightHandMiddle3
										{
											OFFSET -4.596550 0.000000 0.000000
											CHANNELS 3 Xrotation Yrotation Zrotation
											End Site
											{
												OFFSET -0.057701 4.578827 0.399218
											}
										}
									}
								}
								JOINT newVegas:RightHandRing1
								{
									OFFSET -17.732719 0.121887 -4.201567
									CHANNELS 3 Xrotation Yrotation Zrotation
									JOINT newVegas:RightHandRing2
									{
										OFFSET -2.733170 0.000000 0.000000
										CHANNELS 3 Xrotation Yrotation Zrotation
										JOINT newVegas:RightHandRing3
										{
											OFFSET -3.178268 0.000000 0.000000
											CHANNELS 3 Xrotation Yrotation Zrotation
											End Site
											{
												OFFSET -0.119102 3.170624 0.185394
											}
										}
									}
								}
								JOINT newVegas:RightHandPinky1
								{
									OFFSET -15.989624 -0.606689 -7.535461
									CHANNELS 3 Xrotation Yrotation Zrotation
									JOINT newVegas:RightHandPinky2
									{
										OFFSET -2.538986 0.000000 0.000000
										CHANNELS 3 Xrotation Yrotation Zrotation
										JOINT newVegas:RightHandPinky3
										{
											OFFSET -2.593102 0.000000 0.000000
											CHANNELS 3 Xrotation Yrotation Zrotation
											End Site
											{
												OFFSET 0.150902 2.584198 0.152708
											}
										}
									}
								}
							}
							JOINT newVegas:Right_CapeC
							{
								OFFSET -15.715958 -8.608795 -6.935905
								CHANNELS 3 Xrotation Yrotation Zrotation
								JOINT newVegas:Right_CapeC1
								{
									OFFSET 0.000000 -8.688499 0.000000
									CHANNELS 3 Xrotation Yrotation Zrotation
									End Site
									{
										OFFSET 0.000000 8.688499 0.000000
									}
								}
							}
							JOINT newVegas:Right_Sleeve
							{
								OFFSET -0.267448 -0.649994 0.577675
								CHANNELS 3 Xrotation Yrotation Zrotation
								End Site
								{
									OFFSET 0.000000 15.991302 0.000000
								}
							}
						}
						JOINT newVegas:Right_CapeA
						{
							OFFSET -5.115540 -8.608795 -10.395824
							CHANNELS 3 Xrotation Yrotation Zrotation
							JOINT newVegas:Right_CapeA1
							{
								OFFSET 0.000000 -8.688499 0.000000
								CHANNELS 3 Xrotation Yrotation Zrotation
								End Site
								{
									OFFSET 0.000000 8.688499 0.000000
								}
							}
						}
						JOINT newVegas:Right_CapeB
						{
							OFFSET -26.118187 -8.608795 -7.079266
							CHANNELS 3 Xrotation Yrotation Zrotation
							JOINT newVegas:Right_CapeB1
							{
								OFFSET 0.000000 -8.688499 0.000000
								CHANNELS 3 Xrotation Yrotation Zrotation
								End Site
								{
									OFFSET 0.000000 8.688499 0.000000
								}
							}
						}
					}
				}
				JOINT newVegas:Left_Collar
				{
					OFFSET 18.625099 8.655502 8.828100
					CHANNELS 3 Xrotation Yrotation Zrotation
					JOINT newVegas:Left_Collar1
					{
						OFFSET 14.783401 10.540405 -1.259500
						CHANNELS 3 Xrotation Yrotation Zrotation
						End Site
						{
							OFFSET 0.000000 18.199875 0.000000
						}
					}
				}
				JOINT newVegas:Collar_Back
				{
					OFFSET 0.000000 15.630707 -20.132601
					CHANNELS 3 Xrotation Yrotation Zrotation
					End Site
					{
						OFFSET 0.000000 22.523010 0.000000
					}
				}
				JOINT newVegas:Left_Peck
				{
					OFFSET 17.239599 -5.132599 25.482599
					CHANNELS 3 Xrotation Yrotation Zrotation
					End Site
					{
						OFFSET 0.000000 22.523010 0.000000
					}
				}
				JOINT newVegas:Right_Peck
				{
					OFFSET -17.239599 -5.132202 25.482599
					CHANNELS 3 Xrotation Yrotation Zrotation
					End Site
					{
						OFFSET 0.000000 22.523010 0.000000
					}
				}
				JOINT newVegas:Right_Collar
				{
					OFFSET -18.625099 8.655792 8.828100
					CHANNELS 3 Xrotation Yrotation Zrotation
					JOINT newVegas:Right_Collar1
					{
						OFFSET -14.783401 10.539993 -1.259500
						CHANNELS 3 Xrotation Yrotation Zrotation
						End Site
						{
							OFFSET 0.000000 18.199631 0.000000
						}
					}
				}
			}
		}
		JOINT newVegas:Belly
		{
			OFFSET 0.000000 -6.540398 9.014299
			CHANNELS 3 Xrotation Yrotation Zrotation
			End Site
			{
				OFFSET 0.000000 11.566666 0.000000
			}
		}
	}
	JOINT newVegas:ElvisFacialAnim_Joint
	{
		OFFSET 1.000000 -95.330101 -8.825800
		CHANNELS 3 Xrotation Yrotation Zrotation
		End Site
		{
			OFFSET 0.000000 35.315800 0.000000
		}
	}
}
MOTION
Frames: 4
Frame Time: 0.016667
0.075385 93.039749 4.119405 1.892617 0.289918 -0.238166 -0.000000 -0.000000 0.000000 -9.663925 -5.893861 11.728585 20.872319 -0.891170 -1.849965 -10.224155 15.306915 -10.563848 0.000000 0.000000 0.000000 -0.000000 -0.000000 -0.000000 -6.984653 -4.437395 -10.836142 19.819365 0.860614 -0.235457 -12.878644 -12.275149 9.736582 0.000000 -0.000001 -0.000000 0.000002 -0.000000 -0.000001 2.070963 0.275684 0.912760 3.430438 -0.015269 0.185037 3.430499 0.005499 0.178976 -1.410893 -0.005340 -0.007984 -1.410892 -0.005339 -0.007984 0.000000 -0.000000 -0.000000 -1.410894 -0.005339 -0.007984 -1.410888 -0.005341 -0.007984 -0.000001 -0.000000 -0.000000 0.000000 -0.000000 -0.000000 0.742837 8.952358 -13.053722 10.740852 -6.252035 -54.033859 0.000006 -33.005902 0.000004 3.135485 -1.542049 -4.245107 -3.935395 -5.157143 8.901504 21.369760 38.859122 0.033470 -0.000000 0.000000 -0.000004 1.240177 5.550748 -31.144638 2.582844 4.855852 -55.996992 0.000000 -0.000000 0.000001 2.320327 7.123376 -41.324707 3.978834 5.544413 -71.308029 0.000000 0.000001 -0.000000 2.315934 7.119622 -41.286038 3.978844 5.544411 -71.308042 0.000000 -0.000001 0.000001 2.340563 7.146626 -41.312119 3.983144 5.545854 -71.352732 -0.000000 -0.000002 -0.000001 0.000000 0.000001 0.000002 0.000000 0.000001 0.000002 0.000000 0.000000 0.000002 0.000000 0.000002 -0.000000 0.000000 0.000001 -0.000000 0.000000 0.000002 -0.000000 -0.000000 0.000001 0.000000 1.078069 -8.352865 11.371667 3.407871 18.890949 61.317299 -0.000002 23.538782 0.000006 1.182692 -2.960224 -1.406683 -5.113524 0.222611 -17.981441 16.974243 -29.891285 7.722245 0.000001 0.000001 -0.000000 0.293260 -3.768022 14.855199 3.775965 -4.573219 79.081310 0.000000 -0.000001 -0.000000 1.476681 -5.897265 31.989666 4.654512 -4.657156 89.967375 0.000001 0.000000 0.000002 1.427409 -5.817104 32.033095 4.654583 -4.657156 89.968065 -0.000001 -0.000001 -0.000000 1.424028 -5.850178 32.030609 4.654563 -4.657146 89.968181 0.000000 -0.000000 0.000001 0.000001 0.000002 -0.000002 0.000001 0.000001 0.000000 0.000001 0.000002 -0.000002 -0.000000 0.000000 -0.000000 -0.000000 0.000000 0.000001 -0.000000 0.000000 -0.000000 -0.000000 -0.000000 0.000001 0.000000 0.000000 -0.000000 0.000000 0.000000 -0.000000 0.000000 0.000000 -0.000000 0.000000 0.000000 -0.000000 0.000000 0.000000 -0.000000 0.000000 0.000000 -0.000000 0.000000 0.000000 -0.000000 0.000001 0.000000 -0.000000 -0.000000 -0.000000 0.000000 
0.586435 92.957474 4.134784 1.971363 0.181260 -0.223306 -0.000000 -0.000000 0.000000 -10.493020 -5.563397 11.494793 21.941351 -1.104222 -1.998641 -10.872641 14.279480 -10.089314 -0.000000 -0.000000 -0.000000 -0.000000 -0.000000 0.000000 -7.098891 -4.335902 -11.334488 19.734737 0.980660 -0.232410 -12.651837 -12.314716 10.207201 0.000000 -0.000002 0.000000 -0.000001 0.000001 0.000001 2.228440 0.144612 0.875988 3.366062 -0.047926 0.178463 3.366261 -0.027680 0.173012 -1.384430 -0.002325 -0.008040 -1.384420 -0.002325 -0.008040 0.000001 -0.000000 -0.000000 -1.384289 -0.002326 -0.008041 -1.384570 -0.002324 -0.008040 0.000001 -0.000000 -0.000000 0.000001 -0.000000 0.000000 0.736160 8.634892 -13.051692 10.465395 -6.468722 -54.238577 0.000004 -32.925415 -0.000009 3.835494 -1.562224 -4.453601 -3.935402 -5.157143 8.901473 21.369770 38.859132 0.033470 -0.000000 -0.000003 -0.000006 1.240173 5.550748 -31.144665 2.582853 4.855852 -55.996992 0.000000 -0.000001 -0.000001 2.320326 7.123372 -41.324735 3.979596 5.544675 -71.315918 0.000000 -0.000000 0.000000 2.324900 7.126356 -41.393818 3.982382 5.545597 -71.344598 -0.000000 0.000001 0.000001 2.340570 7.146622 -41.312133 3.983151 5.545855 -71.352753 0.000000 -0.000005 -0.000000 -0.000001 0.000002 0.000002 -0.000001 0.000002 0.000002 -0.000001 0.000002 0.000002 0.000000 -0.000001 -0.000001 0.000000 -0.000001 -0.000001 0.000000 -0.000001 -0.000001 0.000000 -0.000001 -0.000000 1.102348 -8.042776 11.607337 3.214948 18.780589 60.984382 -0.000002 23.113683 0.000005 2.062542 -2.669417 -0.892130 -5.113512 0.222618 -17.981448 16.974248 -29.891288 7.722249 0.000001 0.000001 -0.000000 0.293269 -3.768019 14.855177 3.760204 -4.570163 78.883528 0.000000 0.000000 0.000002 1.476693 -5.897264 31.989645 4.659791 -4.657153 90.032309 -0.000000 0.000001 -0.000001 1.436527 -5.825496 32.180494 4.654582 -4.657153 89.968051 -0.000000 0.000001 -0.000002 1.432360 -5.863718 32.225512 4.654565 -4.657150 89.968167 0.000000 0.000001 0.000001 -0.000000 0.000001 -0.000002 -0.000001 0.000001 -0.000001 -0.000000 0.000001 -0.000001 -0.000001 0.000001 -0.000000 -0.000000 0.000001 0.000001 -0.000001 0.000001 -0.000000 -0.000000 0.000001 0.000001 0.000001 0.000000 0.000000 0.000001 0.000000 0.000000 0.000001 0.000000 0.000000 0.000001 0.000000 0.000000 0.000001 0.000000 0.000000 0.000001 0.000000 0.000000 0.000001 0.000000 0.000000 -0.000000 -0.000000 0.000000 -0.000000 -0.000000 0.000000 
1.102137 92.874359 4.125134 2.047197 0.077309 -0.207082 -0.000000 -0.000000 0.000000 -11.348777 -5.213164 11.282915 22.973741 -1.360255 -2.150208 -11.459633 13.161809 -9.616582 0.000000 -0.000000 -0.000000 -0.000000 0.000000 -0.000000 -7.241187 -4.236748 -11.835837 19.664878 1.095378 -0.229779 -12.411322 -12.345019 10.669882 0.000000 -0.000001 0.000000 0.000002 -0.000000 0.000000 2.391755 0.013461 0.833630 3.299831 -0.080446 0.171142 3.300181 -0.060740 0.166296 -1.358483 0.000807 -0.008097 -1.358485 0.000807 -0.008097 0.000002 0.000000 -0.000000 -1.358482 0.000807 -0.008097 -1.358482 0.000807 -0.008097 0.000000 0.000000 -0.000000 0.000002 0.000000 0.000000 0.729728 8.312049 -13.050098 10.192952 -6.689420 -54.453038 0.000003 -32.826552 -0.000004 4.533533 -1.587745 -4.670875 -3.935394 -5.157132 8.901488 21.369768 38.859115 0.033460 -0.000000 -0.000002 -0.000005 1.240178 5.550754 -31.144659 2.582849 4.855856 -55.996988 0.000000 0.000001 -0.000001 2.320331 7.123383 -41.324707 3.980447 5.544956 -71.324729 0.000000 -0.000002 -0.000001 2.334071 7.133211 -41.503726 3.985981 5.546806 -71.381836 -0.000001 -0.000004 0.000002 2.340564 7.146629 -41.312146 3.983158 5.545857 -71.352746 -0.000000 0.000002 0.000000 0.000000 -0.000000 0.000003 0.000000 -0.000000 0.000003 0.000000 -0.000001 0.000003 -0.000000 0.000000 -0.000000 -0.000000 -0.000000 -0.000003 -0.000000 0.000000 -0.000000 -0.000000 0.000000 -0.000000 1.124653 -7.724696 11.847045 3.010281 18.678491 60.639772 0.000004 22.673023 -0.000017 2.953355 -2.354778 -0.380934 -5.113515 0.222617 -17.981429 16.974220 -29.891278 7.722232 0.000000 -0.000000 -0.000001 0.293271 -3.768018 14.855188 3.744290 -4.567023 78.683813 0.000000 -0.000003 -0.000000 1.476689 -5.897260 31.989662 4.665308 -4.657147 90.100229 0.000002 -0.000002 0.000002 1.445858 -5.834037 32.330926 4.654578 -4.657153 89.968085 -0.000001 -0.000001 -0.000004 1.440924 -5.877525 32.424281 4.654569 -4.657148 89.968174 -0.000001 -0.000000 -0.000001 -0.000000 -0.000001 -0.000000 -0.000000 -0.000002 0.000000 -0.000000 -0.000002 0.000000 0.000001 0.000001 0.000001 0.000001 0.000001 0.000002 0.000001 0.000001 0.000001 0.000001 0.000001 0.000002 -0.000000 -0.000000 0.000000 -0.000000 -0.000000 0.000000 -0.000000 -0.000000 0.000000 -0.000000 -0.000000 0.000000 -0.000000 -0.000000 0.000000 -0.000000 -0.000000 0.000000 -0.000000 -0.000000 0.000000 -0.000000 -0.000000 0.000000 -0.000000 -0.000000 0.000000 
1.621769 92.790276 4.094904 2.120638 -0.022734 -0.189936 0.000000 0.000000 0.000000 -12.221386 -4.850934 11.083905 23.974376 -1.640223 -2.299217 -11.990019 11.981672 -9.147142 -0.000000 -0.000000 0.000000 0.000001 -0.000000 -0.000000 -7.404093 -4.137793 -12.343190 19.598661 1.209568 -0.227019 -12.146592 -12.370004 11.139621 -0.000000 0.000000 0.000000 0.000001 0.000000 -0.000000 2.559759 -0.117785 0.786904 3.232089 -0.112856 0.163210 3.232568 -0.093704 0.158966 -1.332799 0.004043 -0.008153 -1.332797 0.004043 -0.008153 0.000000 -0.000000 -0.000000 -1.332797 0.004043 -0.008153 -1.332730 0.004042 -0.008153 0.000000 0.000000 -0.000000 0.000000 -0.000000 -0.000000 0.723528 7.984864 -13.048742 9.926439 -6.917192 -54.675302 0.000005 -32.712880 -0.000003 5.229925 -1.618799 -4.895273 -3.935395 -5.157139 8.901494 21.369767 38.859128 0.033476 0.000003 -0.000003 0.000000 1.240174 5.550754 -31.144645 2.582854 4.855847 -55.997005 0.000000 0.000005 0.000001 2.320325 7.123382 -41.324707 3.981374 5.545268 -71.334325 0.000000 -0.000001 0.000000 2.343397 7.140148 -41.615574 3.989638 5.548034 -71.419654 -0.000000 -0.000002 0.000001 2.340561 7.146625 -41.312143 3.983147 5.545854 -71.352732 0.000000 -0.000003 -0.000001 -0.000000 0.000001 -0.000001 -0.000000 0.000001 -0.000001 -0.000000 0.000000 -0.000001 -0.000000 0.000001 -0.000000 -0.000001 0.000001 -0.000000 -0.000000 0.000001 -0.000000 -0.000000 0.000001 -0.000000 1.144755 -7.400145 12.089764 2.794425 18.583895 60.286542 0.000001 22.219837 0.000000 3.851653 -2.017862 0.124928 -5.113524 0.222609 -17.981457 16.974239 -29.891281 7.722249 -0.000000 0.000003 0.000001 0.293266 -3.768019 14.855187 3.728254 -4.563793 78.482316 0.000000 -0.000000 0.000001 1.476690 -5.897269 31.989645 4.671008 -4.657133 90.170457 -0.000001 0.000002 -0.000002 1.455364 -5.842714 32.483925 4.654586 -4.657151 89.968065 0.000001 0.000001 -0.000002 1.449673 -5.891558 32.626372 4.654573 -4.657144 89.968201 0.000001 0.000003 -0.000003 0.000000 0.000000 -0.000001 0.000001 -0.000000 -0.000001 0.000000 0.000000 -0.000001 0.000001 0.000000 -0.000001 0.000001 0.000000 -0.000001 0.000001 0.000000 -0.000001 0.000001 -0.000000 -0.000001 -0.000000 0.000000 -0.000000 -0.000000 0.000000 -0.000000 -0.000000 0.000000 -0.000000 -0.000000 0.000000 -0.000000 -0.000000 0.000000 -0.000000 -0.000000 0.000000 -0.000000 -0.000000 0.000000 -0.000000 -0.000000 0.000000 0.000000 0.000000 0.000000 0.000000 
